<?xml version="1.0" encoding="UTF-8"?>
<svg id="Layer_1" xmlns="http://www.w3.org/2000/svg" version="1.1" viewBox="500 280 400 400">
  <defs>
    <style>
      .st0 {
        fill: #95c926;
      }
    </style>
  </defs>
  <g>
    <path d="M829.4,416.6c-8.3,5.5-18.3-1.6-30.8,1.9-15,4.3-11.5,9.5-32.2,16.5-12.1,4.1-14.7,12.7-15.2,18.3-1.3,13.8.4,45.3,6.9,49.3,2.8,2,4.2,3,3.7,4.2-.9,2.4-2.9.7-8.5-.4-10.2-2-22,6.1-27.5,8.8-7.2,3.6-22.7,12-21.6,19,2,13,19.2,20.3,29,23,5,1.3,10.2-3.9,17.5-1.9,6.6,1.9,9.4,12.8,3.1,17.4-3.5,2.5-10.5,3.8-15.6-1.8-2.6-2.8-3-5.7-5.9-8-4.2-3.2-7.4-5-11.6-5.8-6.2-1.3-10.8,8.1-8.2,12.3,4.1,6.5,6.2,10.6,13.4,18s13.1,6.1,15.1,13.7c3.9,15.3-13.4,21.9-19,14.1-1.8-2.6-2.3-7-2.4-11,0-2.9.5-10.6-.7-15-1.6-5.7-4.2-9.7-6.8-12.9-2-2.5-3.6-3.7-6.4-3.8s-4.3,1.3-6.1,3.7c-2,2.8-3.6,7-4.9,10.7-5,13.8-19.9,13.3-24.8,7.4-4.8-5.6-3.5-14.5,3.2-17.4,7.9-3.5,13.2-1.2,19.4-2.9,3.5-1,14.6-6.2,14.2-15.3s-2.2-13.2-4.5-18.2c-3.8-8.6-13.5-22.1-22.9-25.1-5.5-1.7-15.7-2.1-20.9.2-6.3,2.7-9.2,6.5-10.9,3.7s2.8-4.1,2.8-4.1c9.8-8.8,7.4-44.8-3.2-54.3-13.2-11.8-38.1-12.4-49.4-11.2-9.7,1-12.3,5.5-22.1,7.5-16.7,3.4-24.2-7.6-22.2-16.5,2-8.9,10.8-11.9,19.1-8.8s14.5,13.1,19.9,13.6c13,1.3,17-10.9,18-19.6.9-8.7,1.7-13.1-8-23.6-6.4-6.9-15.7-2.7-23.2-11.8-6.1-7.4-3.8-17.5,1.8-21.3,7.4-5,16.5-.9,19.8,7,2.9,6.8,1.7,18,4.1,22.1,3.8,6.6,8.3,11.5,14.9,18.3,5.6,5.7,5.2,10.6,8.9,15.7,6,8.4,15.3-.9,15.7-6.3.6-9.3-3.4-12.9-6.8-16.9-2.4-2.8-6.6-5.8-8-10.8-4-14.6,17-18.9,20.1-6.6,1.5,5.9-2.2,12.1-2.6,17.2-.8,11.9,2.1,5.4.4,28.1-2.1,26.6,6.6,25.4,14.8,24.4,11.5-1.4,30.8-21.7,34.6-29.5,2-4,1.5-9.2,3.9-9s1.2,1.7,3.3,7.1c2.6,6.6,8,11.8,14.7,13.5,7.2,1.8,30.1,1.9,43.8-12.7,6.5-7,10.1-21.4,10.6-32.9.5-9.9-6.8-22.3-4-28.8,5.1-12.2,22.9-4.9,23.9,10.1.6,9.3-13.1,15.3-16.1,24.2-2.3,6.6,5.2,15.9,13.4,14.1,10.9-2.3,12.9-13.7,19.9-17.9,2.3-1.3,5-2.9,7.7-3.1,13.9-1.1,19.7,15,11.4,20.5Z"/>
    <path class="st0" d="M632.5,537.6c-7.8,15.6-10.5,38.9-10.4,46.6s1.9,5.8,2.9,9.2c1.1,3.5,1.2,7.7-1.4,9.9-3.7,3.1-11.6,1.4-12-4.2-.4-6.4,5.3-9.9,6.7-14,2-5.9-3.9-10.1-10.1-8-5.1,1.8-8.2,10.1-17.2,10.3-7.7.2-15.9-9.6-6.7-17.1,2.6-2.2,8.8-3.3,14.9-.8,5.8,2.4,10.3,5.3,14,2.8s6.1-14.7,7.4-20.9,1.4-11.5-6.1-14.6c-7.4-3.1-30.7-1.4-37.9,1.1-6.6,2.3-6.7,14-18,14.8-16.4,1.2-17.2-21.3-4.6-25.9s17.6,7.1,26,6.2c12.5-1.4,15.1-15.9,9-19.2-4.8-2.7-14-1-18.7-4.3-3.8-2.7-4.1-7.6-2.5-10.5,3-5.4,9.9-8,16.3-4.4,4.7,2.7,4.9,13.1,8.3,17.1,7,8.3,27.5,19.9,41.8,15.3,6.2-2.5,7.6-4.5,8.9-3.1,2.5,2.6-6.6,5.8-10.6,13.7Z"/>
    <path class="st0" d="M747.8,352.8c-2.8,6.8-15.5,11.7-20,17.5-8.6,11-18.9,24-23.2,36.5-1.8,4.3-1.3,9.2-3.8,9.2s-1.8-7.6-2.6-10.2c-.2-.6-.2-1-.2-1-4.4-18.6-21.9-36.3-35.9-49.8-5.8-5.6-21.8-6.5-24.3-12.3-4.9-11.3,11.7-14,19.3-7.4,3.2,2.9,3.4,11.4,6.4,15.3,5.4,7.4,17.6,12.8,25.1,4,6.4-7.5,5.9-19.7,3.8-31-2.1-11.7,19.5-16.8,20.8,2.6.5,8.7-12.9,11.7-18.3,24.6-2.8,6.9-1.1,14.9,0,21.9,1,7,4.1,13.9,13.7,10.8,9.7-3.1,15.1-14.1,17.9-20.5,3.2-7.4-.7-17.4,7.8-21.6,8.4-4.2,16.4,4.6,13.5,11.4Z"/>
    <path class="st0" d="M846.3,531c-8.7,7.6-15.1-1.8-22-5.6-4.1-2.2-7.7-3.8-13.3-4.8-5.5-1-11.8-.8-15,8.1-1.9,5-.4,16.5,8.3,23.8,6.3,5.3,15.8,3.2,20.6,10.3,6.9,10.4-1.8,30-16.9,22.4-8.2-4.1-10.9-16.3-12.2-25.6-.6-4.3-1.2-13.8-4.3-21.2-2.8-6.9-11.7-18.4-14.9-21.7-4.2-4.4-9.6-4.9-9.3-7.1.3-2.3,2.4-.9,10-2.8,5.2-1.3,18.3-8.8,31.8-15.8,9.4-4.9,12.3-13,16.8-21.3,3.7-6.8,8.5-15.6,14.7-17.1,12.9-2.8,18.2,13.4,10.5,25.3-2.3,3.5-6.6,6.5-13.5,8.2-5.1,1.2-15.6,2.7-25.7,8.1-9.6,5.1-20.6,8.1-20.5,12.4,0,4.8,20.6,11.3,29,11.5,9,.3,18.7-9.7,25.9-4.3,5.1,3.8,5.4,12.7.1,17.1Z"/>
  </g>
</svg>
